<svg width="32" height="32" viewBox="0 0 32 32" fill="none" xmlns="http://www.w3.org/2000/svg">
<path d="M25.3333 12.0001C25.3333 10.7744 25.0919 9.56074 24.6228 8.42837C24.1538 7.296 23.4663 6.2671 22.5996 5.40042C21.7329 4.53374 20.704 3.84625 19.5717 3.37721C18.4393 2.90816 17.2256 2.66675 16 2.66675C14.7743 2.66675 13.5606 2.90816 12.4282 3.37721C11.2959 3.84625 10.267 4.53374 9.4003 5.40042C8.53362 6.2671 7.84613 7.296 7.37708 8.42837C6.90804 9.56074 6.66663 10.7744 6.66663 12.0001C6.66663 13.8494 7.21196 15.5694 8.13996 17.0201H8.12929L16 29.3334L23.8706 17.0201H23.8613C24.8225 15.5222 25.3334 13.7798 25.3333 12.0001ZM16 16.0001C14.9391 16.0001 13.9217 15.5787 13.1715 14.8285C12.4214 14.0784 12 13.0609 12 12.0001C12 10.9392 12.4214 9.9218 13.1715 9.17165C13.9217 8.42151 14.9391 8.00008 16 8.00008C17.0608 8.00008 18.0782 8.42151 18.8284 9.17165C19.5785 9.9218 20 10.9392 20 12.0001C20 13.0609 19.5785 14.0784 18.8284 14.8285C18.0782 15.5787 17.0608 16.0001 16 16.0001Z" fill="white"/>
</svg>
