<svg width="18" height="18" viewBox="0 0 18 18" fill="none" xmlns="http://www.w3.org/2000/svg">
<path d="M15.0623 7.87497L15.9638 8.41572C16.0194 8.44902 16.0654 8.49616 16.0974 8.55255C16.1293 8.60894 16.1461 8.67265 16.1461 8.73747C16.1461 8.80229 16.1293 8.86601 16.0974 8.9224C16.0654 8.97879 16.0194 9.02593 15.9638 9.05922L9.00001 13.2367L2.03626 9.05922C1.98065 9.02593 1.93461 8.97879 1.90265 8.9224C1.87068 8.86601 1.85388 8.80229 1.85388 8.73747C1.85388 8.67265 1.87068 8.60894 1.90265 8.55255C1.93461 8.49616 1.98065 8.44902 2.03626 8.41572L2.93776 7.87497L9.00001 11.5125L15.0623 7.87497ZM15.0623 11.4L15.9638 11.9407C16.0194 11.974 16.0654 12.0212 16.0974 12.0775C16.1293 12.1339 16.1461 12.1977 16.1461 12.2625C16.1461 12.3273 16.1293 12.391 16.0974 12.4474C16.0654 12.5038 16.0194 12.5509 15.9638 12.5842L9.38626 16.5307C9.26961 16.6008 9.1361 16.6378 9.00001 16.6378C8.86393 16.6378 8.73041 16.6008 8.61376 16.5307L2.03626 12.5842C1.98065 12.5509 1.93461 12.5038 1.90265 12.4474C1.87068 12.391 1.85388 12.3273 1.85388 12.2625C1.85388 12.1977 1.87068 12.1339 1.90265 12.0775C1.93461 12.0212 1.98065 11.974 2.03626 11.9407L2.93776 11.4L9.00001 15.0375L15.0623 11.4ZM9.38551 0.981724L15.9638 4.92822C16.0194 4.96152 16.0654 5.00866 16.0974 5.06505C16.1293 5.12144 16.1461 5.18515 16.1461 5.24997C16.1461 5.31479 16.1293 5.37851 16.0974 5.4349C16.0654 5.49129 16.0194 5.53843 15.9638 5.57172L9.00001 9.74922L2.03626 5.57247C1.98065 5.53918 1.93461 5.49204 1.90265 5.43565C1.87068 5.37926 1.85388 5.31554 1.85388 5.25072C1.85388 5.1859 1.87068 5.12219 1.90265 5.0658C1.93461 5.00941 1.98065 4.96227 2.03626 4.92897L8.61376 0.982474C8.73041 0.912391 8.86393 0.875366 9.00001 0.875366C9.1361 0.875366 9.26961 0.912391 9.38626 0.982474" fill="#179525"/>
</svg>
